<svg xmlns="http://www.w3.org/2000/svg" viewBox="0 0 310 310"><defs><style>.cls-1{fill:#ec681c;}.cls-2{fill:#fff;}</style></defs><title>Element 2</title><g id="Ebene_2" data-name="Ebene 2"><g id="Ebene_1-2" data-name="Ebene 1"><rect class="cls-1" width="310" height="310"/><circle class="cls-2" cx="154.99" cy="155.55" r="36.37"/><path class="cls-2" d="M279.83,155.43c.32,52-43.29,101.07-98.16,110.55-1.66.29-1.68-.27-1.68-.27s-.24-.32,1.28-1.06c36.79-17.87,60.51-60.46,60.44-97,0-52.68-33.31-85.51-87.43-85.47l.06,0c-44,.08-83.85,44.38-69.29,97.81.46,1.68.25,1.65.25,1.65s-.25.29-1-1.27a91.93,91.93,0,0,1-7.86-38.51c.14-58.21,59-113.44,127.12-91.15,47.5,15.55,76.14,61.93,76.21,104.2"/><path class="cls-2" d="M29.83,155.48c-.32-51.93,43.21-101,98-110.53,1.71-.3,1.82.17,1.82.17s.29.38-1.21,1.11c-36.82,17.84-60.57,60.46-60.5,97,0,52.68,33.31,85.51,87.43,85.46l-.06,0c44-.08,83.86-44.4,69.28-97.84-.45-1.68-.21-1.44-.21-1.44s.24-.45.93,1.12A91.73,91.73,0,0,1,233.16,169c-.13,58.21-59,113.44-127.11,91.14C58.55,244.63,29.91,198.25,29.84,156"/></g></g></svg>