<svg id="Ebene_1" data-name="Ebene 1" xmlns="http://www.w3.org/2000/svg" viewBox="0 0 310 310"><defs><style>.cls-1{fill:#FF6601;}.cls-2{fill:#fff;}</style></defs><title>TYPO3 Image Gallery</title><rect class="cls-1" width="310" height="310"/><path class="cls-2" d="M51.93,98.16v88.38c-1.15-3-1.87-4.5-2.33-6.1-5.52-18.41-10.29-37-16.69-55.1C27.12,108.91,34.78,99.8,51.93,98.16Z"/><path class="cls-2" d="M93.66,261.88c-14.48,4.26-22.68-1.57-23.9-17.15H147l.23,1c-7.09,2.17-14.22,4.42-21.34,6.55-10.75,3.24-21.5,6.4-32.2,9.61"/><path class="cls-2" d="M278.94,82.43c-.16-11.93-5.41-17.19-17.23-17.27-5.26,0-10.55-.26-15.81.08-4,.27-5.49-1.37-6.6-5.07C235.65,48,229,44.55,217,48.09c-16.88,5-33.72,10.18-50.72,15a52.46,52.46,0,0,1-13.45,2c-24.09.19-48.17.07-72.25.11-12.12,0-17.69,5.41-17.72,17.57q-.12,67.05,0,134.14c0,12.61,5.48,17.87,18.13,17.87h89.44q44.76,0,89.48,0c14.18,0,19.06-4.8,19.06-18.9q0-52,0-103.88C279,102.17,279.05,92.3,278.94,82.43Zm-11,95.53c0,1.26-.22,2.56-.49,5.41-6.94-8.27-12.88-15.35-18.83-22.52Q231,139.7,213.47,118.51c-6.82-8.19-12.12-8.19-18.87.12-13.3,16.38-26.48,32.85-39.78,49.2-6.82,8.38-12,8.34-18.83.07-5.41-6.55-10.67-13.18-16.19-19.62s-11-6.41-16.65.19c-9.3,11-18.45,22.06-28.59,34.22-.3-3.09-.64-4.8-.64-6.48,0-30.49.11-61-.12-91.5,0-6.48,1.87-8.72,8.65-8.69q88.73.35,177.47.08c5.11,0,8.16.65,8.12,6.94C267.81,114.67,268,146.33,267.92,178Z"/><path class="cls-2" d="M127,108.8a18.84,18.84,0,0,1,19.17-19.1,19.26,19.26,0,0,1,19.32,19.13,19.62,19.62,0,0,1-19.36,19.25A19.13,19.13,0,0,1,127,108.8Z"/></svg>
